<svg width="169" height="34" viewBox="0 0 169 34" fill="none" xmlns="http://www.w3.org/2000/svg">
<path d="M46.0312 32.3152V7.96045H54.3761C57.1298 7.96045 59.2254 8.51335 60.6657 9.61647C62.1059 10.7196 62.8234 12.3621 62.8234 14.5468C62.8234 15.6607 62.5213 16.664 61.9198 17.554C61.3184 18.4468 60.4364 19.1372 59.2767 19.6254C60.5929 19.9814 61.6097 20.6557 62.3298 21.6428C63.0499 22.63 63.4086 23.8167 63.4086 25.2003C63.4086 27.4874 62.675 29.2459 61.2105 30.4731C59.7433 31.7003 57.6449 32.3152 54.9128 32.3152H46.0312ZM50.263 18.2094H54.4111C55.7273 18.2094 56.7549 17.9127 57.4966 17.3167C58.2383 16.7206 58.6078 15.8791 58.6078 14.7895C58.6078 13.5893 58.2653 12.7208 57.5802 12.1868C56.8951 11.6528 55.8271 11.3858 54.3761 11.3858H50.263V18.2094ZM50.263 21.3111V28.9439H54.9613C56.2883 28.9439 57.324 28.6148 58.0711 27.954C58.8182 27.2932 59.1904 26.3762 59.1904 25.203C59.1904 22.665 57.8958 21.3677 55.3093 21.3111H50.263Z" fill="#1F6BF1"/>
<path d="M70.7152 32.3151H66.6506V6.61182H70.7152V32.3151Z" fill="#1F6BF1"/>
<path d="M85.2497 30.5325C84.0576 31.9377 82.3611 32.6389 80.1657 32.6389C78.2022 32.6389 76.7161 32.0645 75.7074 30.9182C74.6987 29.7719 74.1943 28.1105 74.1943 25.9367V14.2178H78.2589V25.88C78.2589 28.1752 79.2109 29.3215 81.1178 29.3215C83.0921 29.3215 84.4244 28.6149 85.1149 27.1989V14.2178H89.1794V32.3153H85.3495L85.2497 30.5325Z" fill="#1F6BF1"/>
<path d="M100.435 32.6389C97.8588 32.6389 95.7713 31.8297 94.1719 30.2088C92.5725 28.5878 91.7715 26.4301 91.7715 23.7357V23.2341C91.7715 21.4297 92.1194 19.8169 92.818 18.3982C93.5165 16.9795 94.4928 15.8737 95.7524 15.0808C97.0119 14.2878 98.4171 13.894 99.968 13.894C102.433 13.894 104.337 14.6789 105.68 16.2486C107.024 17.8183 107.695 20.038 107.695 22.9104V24.5476H95.8684C95.9897 26.0445 96.4887 27.2258 97.3653 28.0969C98.2418 28.9681 99.3422 29.4023 100.669 29.4023C102.53 29.4023 104.049 28.6499 105.219 27.1422L107.409 29.2297C106.684 30.3113 105.715 31.1474 104.507 31.7434C103.299 32.3395 101.94 32.6389 100.435 32.6389ZM99.9491 17.1575C98.8352 17.1575 97.9343 17.5486 97.2493 18.3254C96.5642 19.1048 96.1246 20.1891 95.9358 21.5808H103.679V21.2814C103.59 19.9247 103.226 18.8972 102.592 18.2013C101.958 17.5055 101.076 17.1575 99.9491 17.1575Z" fill="#1F6BF1"/>
<path d="M115.862 7.96045L122.888 26.627L129.895 7.96045H135.365V32.3152H131.149V24.286L131.567 13.5461L124.374 32.3152H121.348L114.173 13.565L114.592 24.286V32.3152H110.376V7.96045H115.862Z" fill="#1F6BF1"/>
<path d="M149.924 32.3152C149.746 31.9673 149.589 31.4009 149.454 30.616C148.16 31.9646 146.576 32.6389 144.705 32.6389C142.887 32.6389 141.403 32.121 140.254 31.0853C139.105 30.0496 138.531 28.7685 138.531 27.242C138.531 25.3135 139.248 23.8355 140.681 22.8052C142.113 21.775 144.163 21.2598 146.827 21.2598H149.319V20.0785C149.319 19.1453 149.058 18.4009 148.535 17.8399C148.011 17.2789 147.213 16.9984 146.142 16.9984C145.217 16.9984 144.459 17.2277 143.869 17.6889C143.278 18.1501 142.981 18.7353 142.981 19.4447H138.917C138.917 18.4521 139.246 17.5243 139.904 16.6613C140.562 15.7982 141.457 15.1212 142.587 14.6303C143.72 14.1395 144.982 13.894 146.377 13.894C148.494 13.894 150.185 14.4254 151.445 15.4907C152.704 16.5561 153.352 18.0503 153.384 19.9787V28.1374C153.384 29.7638 153.613 31.0638 154.069 32.032V32.3152H149.924ZM145.457 29.3754C146.261 29.3754 147.016 29.1812 147.723 28.7928C148.429 28.4044 148.963 27.8812 149.319 27.2231V23.8194H147.129C145.624 23.8194 144.492 24.081 143.734 24.6042C142.976 25.1274 142.596 25.8664 142.596 26.8239C142.596 27.6034 142.854 28.2237 143.372 28.6849C143.893 29.1434 144.589 29.3754 145.457 29.3754Z" fill="#1F6BF1"/>
<path d="M156.79 9.50082C156.79 8.8724 156.987 8.35186 157.384 7.93651C157.78 7.52115 158.347 7.31348 159.08 7.31348C159.814 7.31348 160.386 7.52115 160.785 7.93651C161.184 8.35186 161.386 8.8724 161.386 9.50082C161.386 10.1185 161.184 10.6309 160.785 11.0409C160.386 11.4508 159.814 11.6558 159.08 11.6558C158.347 11.6558 157.777 11.4508 157.384 11.0409C156.987 10.6309 156.79 10.1185 156.79 9.50082ZM161.106 32.3156H157.041V14.218H161.106V32.3156Z" fill="#1F6BF1"/>
<path d="M169 32.3151H164.936V6.61182H169V32.3151Z" fill="#1F6BF1"/>
<path d="M0.00537109 13.174L17.9815 2.29395L35.9684 13.1956L35.607 32.0429L0.358691 32.0456L0.00537109 13.174Z" fill="url(#paint0_linear)"/>
<path d="M19.4811 0.618983C18.6558 -0.206328 17.3073 -0.206328 16.4847 0.618983L0.0512695 13.1713L35.9496 13.2009L19.4811 0.618983Z" fill="url(#paint1_linear)"/>
<path d="M0.029541 13.1714L0.0405441 13.1796L0.0515473 13.1714H0.029541Z" fill="#0C63A6"/>
<path d="M35.9687 13.2007H35.9495L35.9605 13.2062L35.9687 13.2007Z" fill="#0C63A6"/>
<path d="M16.4873 22.4465L13.6445 24.1375L17.9815 27.6249L22.3292 24.1375L19.4864 22.4438C18.6584 21.6212 17.3099 21.6212 16.4873 22.4465Z" fill="#0C63A6"/>
<path d="M35.9684 13.1849C35.9684 13.1688 35.955 13.1553 35.9388 13.1553H0.029645C0.0188566 13.1553 0.0107653 13.1634 0.00537109 13.1715L13.6446 24.1351L16.4873 22.4441C17.3126 21.6188 18.6612 21.6188 19.4838 22.4441L22.3265 24.1378L35.9684 13.1957V13.1849Z" fill="#164FB4"/>
<path d="M26.1295 24.1969H9.83369C9.02456 24.1969 8.36377 23.5361 8.36377 22.727V10.4147C8.36377 9.60561 9.02456 8.94482 9.83369 8.94482H26.1295C26.9387 8.94482 27.5995 9.60561 27.5995 10.4147V22.7297C27.5995 23.5361 26.9387 24.1969 26.1295 24.1969Z" fill="white"/>
<path d="M20.7218 14.4228C19.9801 13.673 19.0901 13.3008 18.0517 13.3008C17.8845 13.3008 17.639 13.3143 17.3127 13.344V16.3863C17.5743 16.2083 17.8063 16.1193 18.0059 16.1193C18.2917 16.1193 18.5318 16.2218 18.7287 16.4267C18.9256 16.6317 19.0254 16.8825 19.0254 17.1846C19.0254 17.4759 18.9202 17.724 18.7125 17.9263C18.5021 18.1313 18.2486 18.2338 17.9492 18.2338C17.2453 18.2338 16.892 17.7429 16.892 16.7639V10.7305C15.3654 10.7305 14.1301 11.8929 14.1301 11.8929V16.8664C14.1301 17.9937 14.4268 18.9135 15.0175 19.6228C15.3573 20.0328 15.7888 20.3564 16.3148 20.5991C16.838 20.8392 17.3774 20.9606 17.9276 20.9606C19.0254 20.9606 19.9505 20.5911 20.7056 19.852C21.4581 19.113 21.8357 18.2041 21.8357 17.1253C21.8357 16.0734 21.4635 15.1726 20.7218 14.4228Z" fill="#1D63E2"/>
<path d="M22.3267 24.1379L35.6072 32.0431C35.8364 31.6655 35.9686 31.2205 35.9686 30.7485V13.1958L22.3267 24.1379Z" fill="#206BF2"/>
<path d="M0 13.1846V30.7589C0 31.2309 0.132158 31.6705 0.358714 32.0454L13.6446 24.1402L0.00539411 13.1738C0.00269701 13.1765 0 13.1819 0 13.1846Z" fill="url(#paint2_linear)"/>
<path d="M2.48395 33.243H33.4709C34.3744 33.243 35.1674 32.7629 35.6043 32.0428L19.4837 22.4465C19.4837 22.4465 18.2647 21.4594 16.4873 22.4465L0.358643 32.0455C0.792875 32.7629 1.58312 33.243 2.48395 33.243Z" fill="url(#paint3_linear)"/>
<defs>
<linearGradient id="paint0_linear" x1="14.631" y1="17.1732" x2="29.5923" y2="17.1672" gradientUnits="userSpaceOnUse">
<stop stop-color="#1C61DE"/>
<stop offset="1" stop-color="#1752BB"/>
</linearGradient>
<linearGradient id="paint1_linear" x1="0.0523349" y1="6.60099" x2="35.9507" y2="6.60099" gradientUnits="userSpaceOnUse">
<stop stop-color="#1C61DE"/>
<stop offset="1" stop-color="#1752BB"/>
</linearGradient>
<linearGradient id="paint2_linear" x1="6.827" y1="18.1814" x2="6.66041" y2="31.8234" gradientUnits="userSpaceOnUse">
<stop stop-color="#1C61DE"/>
<stop offset="1" stop-color="#1752BB"/>
</linearGradient>
<linearGradient id="paint3_linear" x1="14.6901" y1="27.6299" x2="29.3536" y2="27.6239" gradientUnits="userSpaceOnUse">
<stop stop-color="#1C61DE"/>
<stop offset="1" stop-color="#1752BB"/>
</linearGradient>
</defs>
</svg>
